<svg width="217" height="217" viewBox="0 0 217 217" fill="none" xmlns="http://www.w3.org/2000/svg">
<path d="M108.333 216.667C93.1667 216.667 78.9931 213.868 65.8125 208.271C52.632 202.674 41.1667 195 31.4167 185.25C21.6667 175.5 13.9931 164.035 8.39583 150.854C2.79861 137.674 0 123.5 0 108.333C0 93.1667 2.79861 78.9931 8.39583 65.8125C13.9931 52.632 21.6667 41.1667 31.4167 31.4167C41.1667 21.6667 52.632 13.9931 65.8125 8.39583C78.9931 2.79861 93.1667 0 108.333 0C110.5 0 112.396 0.8125 114.021 2.4375C115.646 4.0625 116.458 5.95833 116.458 8.125C116.458 10.2917 115.646 12.1875 114.021 13.8125C112.396 15.4375 110.5 16.25 108.333 16.25C82.875 16.25 61.1632 25.2326 43.1979 43.1979C25.2326 61.1632 16.25 82.875 16.25 108.333C16.25 133.792 25.2326 155.503 43.1979 173.469C61.1632 191.434 82.875 200.417 108.333 200.417C133.792 200.417 155.503 191.434 173.469 173.469C191.434 155.503 200.417 133.792 200.417 108.333C200.417 106.167 201.229 104.271 202.854 102.646C204.479 101.021 206.375 100.208 208.542 100.208C210.708 100.208 212.604 101.021 214.229 102.646C215.854 104.271 216.667 106.167 216.667 108.333C216.667 123.5 213.868 137.674 208.271 150.854C202.674 164.035 195 175.5 185.25 185.25C175.5 195 164.035 202.674 150.854 208.271C137.674 213.868 123.5 216.667 108.333 216.667Z" fill="#DFE8ED"/>
</svg>
